<?xml version="1.0" encoding="iso-8859-1"?>
<!-- Generator: Adobe Illustrator 19.0.0, SVG Export Plug-In . SVG Version: 6.00 Build 0)  -->
<svg xmlns="http://www.w3.org/2000/svg" xmlns:xlink="http://www.w3.org/1999/xlink" version="1.1" id="Capa_1" x="0px" y="0px" viewBox="0 0 512.015 512.015" style="enable-background:new 0 0 512.015 512.015;" xml:space="preserve" width="512" height="512">
<path d="M448.347,312.948l-1.097-0.671c-3.939-2.414-8.012-4.91-12.691-6.161c-4.848-1.295-9.728-1.167-14.452-1.043  c-4.769,0.125-9.271,0.243-11.905-1.281c-2.716-1.571-4.875-5.571-7.16-9.805c-2.226-4.124-4.527-8.389-8.026-11.887  c-3.498-3.498-7.762-5.8-11.886-8.026c-4.233-2.285-8.232-4.443-9.804-7.16c-1.524-2.633-1.406-7.135-1.28-11.901  c0.124-4.722,0.252-9.604-1.043-14.454c-1.25-4.675-3.755-8.734-6.178-12.66c-2.558-4.145-4.974-8.06-4.974-11.348  s2.416-7.203,4.974-11.347c2.423-3.927,4.929-7.987,6.179-12.662c1.296-4.848,1.168-9.731,1.044-14.453  c-0.125-4.767-0.243-9.27,1.281-11.904c1.571-2.715,5.57-4.874,9.804-7.159c4.124-2.226,8.389-4.528,11.887-8.025  c1.632-1.631,3.097-3.538,4.752-6.183c1.229-1.966,1.481-4.389,0.681-6.565c-0.8-2.176-2.562-3.86-4.771-4.561  c-36.961-11.726-69.937-1.442-96.433,6.822c-9.901,3.088-18.767,5.849-26.318,6.987c-2.279-19.265-5.514-38.146-9.052-55.541  l23.39-9.645c13.039,5.704,27.218,8.569,41.634,8.569c14.492,0,29.223-2.89,43.268-8.681c29.127-12.012,51.544-34.954,61.502-62.945  c1.287-3.616-0.364-7.62-3.826-9.277C401.053-2.858,368.98-3.33,339.852,8.681c-28.016,11.553-49.817,33.221-60.301,59.765  l-20.85,8.598c-9.25-41.52-19.216-71.452-19.372-71.916c-1.318-3.926-5.569-6.042-9.496-4.723c-3.927,1.318-6.042,5.569-4.724,9.496  c0.229,0.68,21.982,66.073,30.673,137.28c-4.648-0.837-9.492-2.162-13.936-3.474c-3.972-1.172-8.144,1.096-9.317,5.068  c-1.173,3.973,1.096,8.144,5.068,9.317c8.294,2.45,17.942,4.952,26.639,4.962c0.013,0,0.026,0.002,0.039,0.002  c0.008,0,0.017-0.001,0.025-0.001c11.066-0.004,23.277-3.812,37.415-8.221c22.219-6.93,46.993-14.659,74.209-10.048  c-0.627,0.345-1.268,0.691-1.916,1.041c-5.609,3.027-11.967,6.458-15.663,12.847c-3.647,6.303-3.458,13.479-3.292,19.81  c0.1,3.823,0.195,7.434-0.541,10.185c-0.681,2.547-2.513,5.516-4.453,8.659c-3.379,5.475-7.208,11.681-7.208,19.225  c0,7.544,3.83,13.75,7.209,19.225c1.939,3.143,3.771,6.111,4.452,8.657c0.735,2.751,0.641,6.362,0.54,10.185  c-0.167,6.331-0.355,13.505,3.291,19.807c3.696,6.389,10.054,9.821,15.663,12.848c3.321,1.792,6.458,3.486,8.404,5.433  c1.947,1.947,3.641,5.084,5.433,8.405c3.027,5.609,6.459,11.967,12.848,15.664c6.303,3.647,13.478,3.46,19.81,3.292  c3.822-0.1,7.434-0.195,10.184,0.54c2.573,0.688,5.563,2.521,8.728,4.46l1.132,0.692c0.041,0.025,0.062,0.056,0.076,0.057  c-5.155,13.006-11.408,26.261-18.587,39.395c-11.481,21.007-20.448,39.882-28.36,56.535c-23.807,50.114-35.757,75.269-73.277,75.269  c-11.13,0-18.496-1.781-26.293-3.667c-7.989-1.932-16.251-3.922-28.357-4.073c-0.635-0.175-1.301-0.276-1.992-0.276  c-0.712,0-1.399,0.106-2.052,0.291c-11.504,0.255-19.496,2.185-27.238,4.057c-7.798,1.886-15.164,3.667-26.293,3.667  c-37.52,0-49.469-25.154-73.277-75.269c-7.912-16.653-16.878-35.528-28.36-56.535C83.208,322.532,71.38,283.302,71.38,248.611  c0-42.134,19.459-77.328,52.052-94.145c31.272-16.135,60.425-11.638,82.329-5.917c4.005,1.047,8.105-1.354,9.152-5.362  c1.046-4.008-1.354-8.105-5.362-9.152c-24.492-6.396-57.197-11.37-92.997,7.101c-37.679,19.44-60.174,59.618-60.174,107.475  c0,37.234,12.446,78.884,36.992,123.795c11.277,20.633,20.147,39.304,27.973,55.777c23.982,50.482,39.826,83.832,86.826,83.832  c12.918,0,21.51-2.078,29.819-4.087c5.76-1.393,11.289-2.727,18.268-3.33c0.045,4.104,3.382,7.418,7.496,7.418  c4.142,0,7.5-3.358,7.5-7.5v0c7.482,0.555,13.277,1.95,19.323,3.413c8.309,2.009,16.901,4.087,29.819,4.087  c47,0,62.844-33.35,86.826-83.832c7.826-16.473,16.696-35.144,27.973-55.777c7.482-13.689,14.006-27.522,19.39-41.114  C457.275,324.503,454.651,316.788,448.347,312.948z M345.571,22.548c22.884-9.437,47.766-10.016,69.342-1.809  c-9.52,21.031-27.578,38.158-50.461,47.595c-18.961,7.82-39.289,9.538-57.977,5.235l41.454-17.094  c3.829-1.579,5.653-5.963,4.074-9.793c-1.579-3.829-5.963-5.655-9.793-4.074l-41.453,17.094  C310.979,43.476,326.61,30.367,345.571,22.548z"/>















</svg>
