<?xml version="1.0" encoding="iso-8859-1"?>
<!-- Generator: Adobe Illustrator 19.0.0, SVG Export Plug-In . SVG Version: 6.00 Build 0)  -->
<svg version="1.1" id="Capa_1" xmlns="http://www.w3.org/2000/svg" xmlns:xlink="http://www.w3.org/1999/xlink" x="0px" y="0px"
	 viewBox="0 0 512 512" style="enable-background:new 0 0 512 512;" xml:space="preserve">
<g>
	<g>
		<path d="M437.02,74.98C388.667,26.629,324.38,0,256,0S123.333,26.629,74.98,74.98C26.629,123.332,0,187.62,0,256
			s26.629,132.668,74.98,181.02C123.333,485.371,187.62,512,256,512s132.667-26.629,181.02-74.98
			C485.371,388.668,512,324.38,512,256S485.371,123.332,437.02,74.98z M426.413,426.413C380.894,471.932,320.374,497,256,497
			s-124.894-25.068-170.413-70.587C40.068,380.894,15,320.374,15,256S40.068,131.106,85.587,85.587
			C131.106,40.068,191.626,15,256,15s124.894,25.068,170.413,70.587C471.932,131.106,497,191.626,497,256
			S471.932,380.894,426.413,426.413z"/>
	</g>
</g>
<g>
	<g>
		<path d="M256,32.064c-59.815,0-116.051,23.293-158.346,65.589C55.358,139.949,32.064,196.185,32.064,256
			c0,4.143,3.358,7.5,7.5,7.5c4.142,0,7.5-3.357,7.5-7.5c0-115.207,93.728-208.936,208.936-208.936c4.142,0,7.5-3.357,7.5-7.5
			C263.5,35.421,260.142,32.064,256,32.064z"/>
	</g>
</g>
<g>
	<g>
		<path d="M472.436,248.5c-4.142,0-7.5,3.357-7.5,7.5c0,115.207-93.728,208.936-208.936,208.936c-4.142,0-7.5,3.357-7.5,7.5
			s3.358,7.5,7.5,7.5c59.815,0,116.051-23.293,158.346-65.589c42.296-42.296,65.589-98.531,65.589-158.347
			C479.936,251.857,476.578,248.5,472.436,248.5z"/>
	</g>
</g>
<g>
	<g>
		<path d="M379.34,109.076c-36.613-30.801-83.2-46.712-131.168-44.767c-48.264,1.944-93.667,21.838-127.845,56.017
			c-34.178,34.179-54.073,79.582-56.017,127.846c-1.933,47.973,13.965,94.556,44.767,131.168c1.483,1.764,3.606,2.672,5.743,2.672
			c1.704,0,3.418-0.578,4.824-1.761c3.17-2.667,3.578-7.397,0.911-10.567c-28.388-33.744-43.039-76.683-41.258-120.909
			c1.792-44.486,20.13-86.337,51.636-117.842c31.506-31.506,73.356-49.844,117.843-51.637
			c44.228-1.771,87.165,12.871,120.908,41.258c3.169,2.669,7.9,2.26,10.567-0.911C382.918,116.473,382.51,111.743,379.34,109.076z"
			/>
	</g>
</g>
<g>
	<g>
		<path d="M402.924,132.659c-2.667-3.17-7.397-3.576-10.567-0.911c-3.17,2.667-3.578,7.397-0.911,10.567
			c28.387,33.743,43.039,76.683,41.257,120.908c-1.792,44.486-20.13,86.337-51.636,117.842
			c-31.505,31.506-73.356,49.844-117.842,51.636c-44.235,1.796-87.166-12.87-120.908-41.257c-3.169-2.667-7.9-2.259-10.567,0.911
			c-2.667,3.17-2.259,7.9,0.911,10.567c34.619,29.124,78.153,44.924,123.347,44.924c2.601,0.002,5.209-0.05,7.821-0.156
			c48.263-1.945,93.666-21.839,127.845-56.017c34.179-34.179,54.072-79.582,56.017-127.846
			C449.624,215.854,433.726,169.271,402.924,132.659z"/>
	</g>
</g>
<g>
	<g>
		<path d="M317.01,322.736c-14.739,14.159-33.56,21.957-52.994,21.957c-37.076,0-68.387-27.641-77.789-65.161h85.805
			c4.142,0,7.5-3.357,7.5-7.5s-3.358-7.5-7.5-7.5h-88.318c-0.245-2.809-0.375-5.654-0.375-8.532c0-2.878,0.13-5.724,0.375-8.532
			h88.318c4.142,0,7.5-3.357,7.5-7.5s-3.358-7.5-7.5-7.5h-85.805c9.402-37.52,40.713-65.161,77.789-65.161
			c19.434,0,38.254,7.798,52.994,21.957c2.987,2.868,7.735,2.773,10.604-0.214c2.87-2.986,2.774-7.734-0.213-10.604
			c-17.547-16.855-40.058-26.139-63.385-26.139c-45.291,0-83.331,34.283-93.191,80.161H151.79c-4.142,0-7.5,3.357-7.5,7.5
			s3.358,7.5,7.5,7.5h16.874c-0.213,2.814-0.326,5.659-0.326,8.532c0,2.873,0.114,5.718,0.326,8.532H151.79
			c-4.142,0-7.5,3.357-7.5,7.5s3.358,7.5,7.5,7.5h19.035c9.86,45.878,47.9,80.161,93.191,80.161
			c23.328,0,45.838-9.283,63.385-26.139c2.987-2.87,3.083-7.618,0.213-10.604C324.745,319.963,319.997,319.868,317.01,322.736z"/>
	</g>
</g>
<g>
</g>
<g>
</g>
<g>
</g>
<g>
</g>
<g>
</g>
<g>
</g>
<g>
</g>
<g>
</g>
<g>
</g>
<g>
</g>
<g>
</g>
<g>
</g>
<g>
</g>
<g>
</g>
<g>
</g>
</svg>
